<?xml version="1.0" standalone="no"?><!DOCTYPE svg PUBLIC "-//W3C//DTD SVG 1.1//EN" "http://www.w3.org/Graphics/SVG/1.1/DTD/svg11.dtd"><svg t="1561001250047" class="icon" style="" viewBox="0 0 1024 1024" version="1.1" xmlns="http://www.w3.org/2000/svg" p-id="5799" xmlns:xlink="http://www.w3.org/1999/xlink" width="200" height="200"><defs><style type="text/css"></style></defs><path d="M322.953846 207.425641h525.128205c28.882051 0 52.512821 23.630769 52.512821 52.512821v105.025641c0 28.882051-23.630769 52.512821-52.512821 52.51282h-525.128205c-28.882051 0-52.512821-23.630769-52.51282-52.51282v-105.025641c0-28.882051 23.630769-52.512821 52.51282-52.512821z" fill="" p-id="5800"></path><path d="M827.076923 1024H196.923077c-73.517949 0-131.282051-57.764103-131.282051-131.282051V131.282051c0-73.517949 57.764103-131.282051 131.282051-131.282051h630.153846c73.517949 0 131.282051 57.764103 131.282051 131.282051v761.435898c0 73.517949-60.389744 131.282051-131.282051 131.282051zM196.923077 52.512821C152.287179 52.512821 118.153846 86.646154 118.153846 131.282051v761.435898c0 44.635897 34.133333 78.769231 78.769231 78.76923h630.153846c44.635897 0 78.769231-34.133333 78.769231-78.76923V131.282051c0-44.635897-34.133333-78.769231-78.769231-78.76923H196.923077z" fill="" p-id="5801"></path><path d="M270.441026 414.851282c15.753846 0 26.25641 10.502564 26.25641 26.25641s-10.502564 26.25641-26.25641 26.256411-26.25641-10.502564-26.256411-26.256411 10.502564-26.25641 26.256411-26.25641m0-52.51282c-44.635897 0-78.769231 34.133333-78.769231 78.76923s34.133333 78.769231 78.769231 78.769231 78.769231-34.133333 78.76923-78.769231-36.758974-78.769231-78.76923-78.76923zM506.748718 414.851282c15.753846 0 26.25641 10.502564 26.25641 26.25641s-10.502564 26.25641-26.25641 26.256411-26.25641-10.502564-26.25641-26.256411 10.502564-26.25641 26.25641-26.25641m0-52.51282c-44.635897 0-78.769231 34.133333-78.769231 78.76923s34.133333 78.769231 78.769231 78.769231 78.769231-34.133333 78.769231-78.769231-36.758974-78.769231-78.769231-78.76923zM743.05641 414.851282c15.753846 0 26.25641 10.502564 26.256411 26.25641s-10.502564 26.25641-26.256411 26.256411-26.25641-10.502564-26.25641-26.256411 10.502564-26.25641 26.25641-26.25641m0-52.51282c-44.635897 0-78.769231 34.133333-78.769231 78.76923s34.133333 78.769231 78.769231 78.769231 78.769231-34.133333 78.769231-78.769231-36.758974-78.769231-78.769231-78.76923zM270.441026 598.646154c15.753846 0 26.25641 10.502564 26.25641 26.25641s-10.502564 26.25641-26.25641 26.25641-26.25641-10.502564-26.256411-26.25641 10.502564-26.25641 26.256411-26.25641m0-52.512821c-44.635897 0-78.769231 34.133333-78.769231 78.769231s34.133333 78.769231 78.769231 78.769231 78.769231-34.133333 78.76923-78.769231-36.758974-78.769231-78.76923-78.769231zM506.748718 598.646154c15.753846 0 26.25641 10.502564 26.25641 26.25641s-10.502564 26.25641-26.25641 26.25641-26.25641-10.502564-26.25641-26.25641 10.502564-26.25641 26.25641-26.25641m0-52.512821c-44.635897 0-78.769231 34.133333-78.769231 78.769231s34.133333 78.769231 78.769231 78.769231 78.769231-34.133333 78.769231-78.769231-36.758974-78.769231-78.769231-78.769231zM743.05641 598.646154c15.753846 0 26.25641 10.502564 26.256411 26.25641s-10.502564 26.25641-26.256411 26.25641-26.25641-10.502564-26.25641-26.25641 10.502564-26.25641 26.25641-26.25641m0-52.512821c-44.635897 0-78.769231 34.133333-78.769231 78.769231s34.133333 78.769231 78.769231 78.769231 78.769231-34.133333 78.769231-78.769231-36.758974-78.769231-78.769231-78.769231zM270.441026 782.441026c15.753846 0 26.25641 10.502564 26.25641 26.25641s-10.502564 26.25641-26.25641 26.25641-26.25641-10.502564-26.256411-26.25641c0-13.128205 10.502564-26.25641 26.256411-26.25641m0-52.512821c-44.635897 0-78.769231 34.133333-78.769231 78.769231s34.133333 78.769231 78.769231 78.769231 78.769231-34.133333 78.76923-78.769231c0-42.010256-36.758974-78.769231-78.76923-78.769231zM506.748718 782.441026c15.753846 0 26.25641 10.502564 26.25641 26.25641s-10.502564 26.25641-26.25641 26.25641-26.25641-10.502564-26.25641-26.25641c0-13.128205 10.502564-26.25641 26.25641-26.25641m0-52.512821c-44.635897 0-78.769231 34.133333-78.769231 78.769231s34.133333 78.769231 78.769231 78.769231 78.769231-34.133333 78.769231-78.769231c0-42.010256-36.758974-78.769231-78.769231-78.769231zM743.05641 782.441026c15.753846 0 26.25641 10.502564 26.256411 26.25641s-10.502564 26.25641-26.256411 26.25641-26.25641-10.502564-26.25641-26.25641c0-13.128205 10.502564-26.25641 26.25641-26.25641m0-52.512821c-44.635897 0-78.769231 34.133333-78.769231 78.769231s34.133333 78.769231 78.769231 78.769231 78.769231-34.133333 78.769231-78.769231c0-42.010256-36.758974-78.769231-78.769231-78.769231zM769.312821 181.169231v105.025641h-525.128206v-105.025641h525.128206m0-52.512821h-525.128206c-28.882051 0-52.512821 23.630769-52.51282 52.512821v105.025641c0 28.882051 23.630769 52.512821 52.51282 52.51282h525.128206c28.882051 0 52.512821-23.630769 52.51282-52.51282v-105.025641c0-28.882051-23.630769-52.512821-52.51282-52.512821z" fill="" p-id="5802"></path></svg>