<?xml version="1.0" standalone="no"?><!DOCTYPE svg PUBLIC "-//W3C//DTD SVG 1.1//EN" "http://www.w3.org/Graphics/SVG/1.1/DTD/svg11.dtd"><svg t="1562655669887" class="icon" viewBox="0 0 1024 1024" version="1.1" xmlns="http://www.w3.org/2000/svg" p-id="16947" xmlns:xlink="http://www.w3.org/1999/xlink" width="200" height="200"><defs><style type="text/css"></style></defs><path d="M915.413333 1021.44H12.16V0.853333h660.266667v43.733334H55.68v933.12h816.213333V399.146667h43.52v622.293333z" fill="" p-id="16948"></path><path d="M225.066667 377.173333h154.453333v43.733334h-154.453333v-43.733334zM704.213333 675.413333v43.733334H225.066667v-43.733334h479.146666zM447.36 557.866667l38.613333-129.493334L847.36 64l95.573333 96.853333-362.666666 364.586667-133.973334 32.64z m77.226667-106.666667l-13.653334 45.653333 48.213334-11.733333 322.346666-324.266667-34.133333-34.56-322.986667 325.333334zM962.56 128.853333L878.933333 44.586667 909.866667 13.653333l83.626666 84.266667-30.933333 30.933333z" fill="" p-id="16949"></path></svg>