<?xml version="1.0" standalone="no"?><!DOCTYPE svg PUBLIC "-//W3C//DTD SVG 1.1//EN" "http://www.w3.org/Graphics/SVG/1.1/DTD/svg11.dtd"><svg t="1551950754784" class="icon" style="" viewBox="0 0 1024 1024" version="1.1" xmlns="http://www.w3.org/2000/svg" p-id="4098" xmlns:xlink="http://www.w3.org/1999/xlink" width="200" height="200"><defs><style type="text/css"></style></defs><path d="M491.539504 323.458903c0-9.339716 2.694365-17.008372 8.090259-23.01211 5.390777-5.996574 12.283768-9.001001 20.669762-9.001001 7.79043 0 14.530948 3.004427 20.222577 9.001001 5.690606 6.003737 8.538467 13.672394 8.538467 23.01211l0 485.171981c0 6.003737-1.347694 11.337209-4.044106 16.007579-2.696412 4.665253-6.291287 8.499581-10.785647 11.502985-4.494361 2.99931-9.139148 4.498454-13.930267 4.498454-8.385994 0-15.280008-3.166109-20.669762-9.500375-5.39487-6.335289-8.090259-13.83817-8.090259-22.508643L491.540528 323.458903 491.539504 323.458903zM326.481238 323.458903c0-9.339716 2.797719-17.008372 8.391111-23.01211 5.594415-5.996574 12.215206-9.001001 19.871583-9.001001 7.653307 0 14.277168 3.004427 19.869536 9.001001 5.592368 6.003737 8.387018 13.672394 8.387018 23.01211l0 485.171981c0 8.670473-2.793626 16.173354-8.387018 22.508643-5.591345 6.334265-12.215206 9.500375-19.869536 9.500375-7.656377 0-14.278191-3.166109-19.871583-9.500375-5.593392-6.335289-8.391111-13.83817-8.391111-22.508643L326.481238 323.458903 326.481238 323.458903zM642.593825 323.458903c0-3.335978 0.449231-6.336312 1.347694-9.002025 0.899486-2.671852 1.949398-5.173836 3.145643-7.502881 1.202385-2.336208 2.696412-4.504594 4.494361-6.507204 1.797949-1.997494 3.746324-3.667529 5.842055-5.001921 2.095731-1.333368 4.341888-2.329045 6.740518-2.998287 2.39863-0.669242 4.792143-1.001817 7.189749-1.001817 8.385994 0 15.278985 3.004427 20.670785 9.001001 5.393847 6.003737 8.089235 13.672394 8.089235 23.01211l0 485.171981c0 6.003737-1.197268 11.337209-3.595898 16.007579-2.39863 4.665253-5.842055 8.499581-10.335393 11.502985-4.494361 2.99931-9.437953 4.498454-14.829753 4.498454-7.79043 0-14.525831-3.166109-20.222577-9.500375-5.690606-6.335289-8.538467-13.83817-8.538467-22.508643L642.591779 323.458903 642.593825 323.458903zM897.684618 158.400636 725.62182 158.400636 725.62182 118.386294c0-15.337313-6.16849-28.511357-18.507516-39.515992-12.33391-11.004635-27.509541-16.504906-45.514613-16.504906L365.493763 62.365396c-18.004049 0-33.175587 5.500271-45.514613 16.504906-12.33698 11.004635-18.507516 24.178679-18.507516 39.515992l0 40.014342L123.412262 158.400636c-8.671497 0-16.173354 3.165086-22.508643 9.499351-6.335289 6.336312-9.506515 12.006452-9.506515 21.0095 0 9.001001 3.170203 16.503882 9.506515 22.50762 6.334265 6.003737 13.837146 9.002025 22.508643 9.002025l68.02121 0 0 675.239851c0 17.339924 6.169513 32.17991 18.507516 44.517913 12.338003 12.339026 27.509541 18.507516 45.514613 18.507516l516.184299 0c11.336186 0 22.00927-2.832512 32.013111-8.503675 10.002818-5.671163 17.838274-13.33982 23.50432-23.00597 5.671163-9.671267 8.504698-20.178575 8.504698-31.515784L835.662029 220.419132l62.023612 0c8.670473 0 16.173354-2.998287 22.50762-9.002025 6.335289-6.003737 9.500375-13.506619 9.500375-22.50762 0-9.002025-3.165086-14.673188-9.500375-21.0095C913.857972 161.564699 906.355091 158.400636 897.684618 158.400636L897.684618 158.400636zM354.488105 104.382349l319.118038 0 0 54.018288-319.118038 0L354.488105 104.382349 354.488105 104.382349zM751.852228 907.626549c-290.542212 0.678452-448.093505 1.020236-472.656947 1.020236-11.230786 0-19.650549-3.062755-25.2685-9.178033-5.613858-6.116301-8.773827-12.230556-9.472745-18.35095L244.454036 252.03213c0-10.878768 2.628874-19.035542 7.893784-24.472368 5.265934-5.435803 10.700713-7.814989 16.315594-7.136537l484.242819 0c1.401929 0 4.38589 0.509606 8.942673 1.529843 4.568039 1.020236 8.601912 2.550079 12.108782 4.586458 3.51301 2.041496 6.667863 5.270027 9.476839 9.685593 2.807952 4.420683 4.209882 9.685593 4.209882 15.807011l0 622.970394c0 9.514701-2.983961 16.98893-8.947789 22.429849s-11.757788 8.494465-17.365506 9.178033L751.852228 907.626549 751.852228 907.626549zM751.852228 907.626549" p-id="4099"></path></svg>