<?xml version="1.0" standalone="no"?><!DOCTYPE svg PUBLIC "-//W3C//DTD SVG 1.1//EN" "http://www.w3.org/Graphics/SVG/1.1/DTD/svg11.dtd"><svg t="1564570448282" class="icon" viewBox="0 0 1024 1024" version="1.1" xmlns="http://www.w3.org/2000/svg" p-id="2884" xmlns:xlink="http://www.w3.org/1999/xlink" width="245" height="245"><defs><style type="text/css"></style></defs><path d="M889.841487 352.803231c-20.047592-47.635927-48.740074-90.410126-85.280291-127.132492-36.548404-36.733623-79.121012-65.578578-126.534882-85.73464-49.109488-20.878516-101.263311-31.464619-155.009399-31.464619-53.746088 0-105.898889 10.586103-155.0094 31.464619-47.412846 20.155039-89.986477 49.001017-126.534881 85.73464-36.541241 36.724413-65.233724 79.498612-85.280292 127.133516-20.757766 49.323359-31.28247 101.69924-31.282471 155.671478 0 53.973262 10.524704 106.349143 31.282471 155.671479 20.044522 47.632857 48.737004 90.406033 85.279268 127.132492 36.551474 36.735669 79.124082 65.581648 126.535905 85.735664 49.114604 20.877493 101.266381 31.463596 155.0094 31.463595 53.744042 0 105.895819-10.586103 155.009399-31.463595 47.412846-20.154016 89.986477-48.999994 126.535905-85.73464 36.541241-36.726459 65.233724-79.499635 85.280292-127.133516 20.757766-49.323359 31.28247-101.69924 31.28247-155.671479 0-53.972239-10.524704-106.34812-31.283494-155.672502zM848.342328 646.681422c-17.790178 42.273802-43.258223 80.237439-75.699076 112.840998-32.431643 32.596396-70.192665 58.184167-112.232131 76.055186-43.512003 18.49626-89.737814 27.874861-137.39523 27.874861-47.65537 0-93.882204-9.378601-137.394207-27.875884-42.038442-17.868973-79.798441-43.457768-112.23213-76.055187-32.43983-32.603559-57.907874-70.568219-75.698053-112.840997-18.418488-43.764759-27.757181-90.263793-27.75718-138.206712 0-47.941895 9.338692-94.441952 27.75718-138.206712 17.790178-42.273802 43.258223-80.238462 75.698053-112.840998 32.43062-32.595372 70.191642-58.184167 112.233154-76.055186 43.508933-18.497283 89.733721-27.875884 137.393183-27.875885 47.659463 0 93.885274 9.378601 137.39523 27.875885 42.040489 17.871019 79.801511 43.459814 112.233154 76.056209 32.437783 32.600489 57.906851 70.565149 75.698053 112.839975 18.418488 43.766806 27.757181 90.26584 27.757181 138.206712 0 47.942919-9.338692 94.441952-27.757181 138.207735z" fill="" p-id="2885"></path><path d="M627.883287 307.777759c-24.52251-23.231097-58.07979-34.201963-99.380428-34.201963-45.817512 0-81.956593 14.196327-108.415198 42.591027-25.168216 27.103288-38.074154 63.24237-38.074154 108.415198h51.625798c0-31.621185 7.098675-56.143695 20.650319-74.212212 16.133446-21.297049 40.010249-31.621185 71.631434-31.621185 27.104311 0 48.399313 7.099698 63.888075 22.586415 14.19735 14.19735 21.296025 34.202986 21.296026 60.014862 0 18.069541-6.452969 34.848693-18.714224 50.981115-4.517897 5.16258-11.616572 12.905938-21.940708 23.231097-34.847669 30.976502-56.789401 55.497988-65.178465 74.857918-8.389064 16.133446-12.261255 34.847669-12.261255 56.143695v14.842033h52.271504v-14.842033c0-17.423835 3.872191-33.55728 12.261255-47.754631 6.453992-11.616572 16.133446-23.232121 29.685089-34.847669 28.3947-25.168216 46.463218-41.946344 52.916187-49.690726 15.487739-21.297049 23.876804-46.463218 23.876804-75.503624 0-38.717813-12.261255-69.048609-36.138059-90.989317zM519.468089 666.579611c-11.616572 0-20.650319 3.226484-27.748995 10.970866-7.743358 7.098675-11.615549 16.133446-11.615548 27.103288s3.872191 20.005636 11.615548 27.748994c7.098675 7.098675 16.133446 10.970866 27.748995 10.970866 10.32516 0 20.004613-3.872191 27.748994-10.970866 7.098675-7.098675 10.970866-16.133446 10.970866-27.748994 0-10.970866-3.872191-20.005636-10.970866-27.103288-7.744381-7.743358-16.779152-10.970866-27.748994-10.970866z" fill="" p-id="2886"></path></svg>