<?xml version="1.0" standalone="no"?><!DOCTYPE svg PUBLIC "-//W3C//DTD SVG 1.1//EN" "http://www.w3.org/Graphics/SVG/1.1/DTD/svg11.dtd"><svg t="1554372034345" class="icon" style="" viewBox="0 0 1024 1024" version="1.1" xmlns="http://www.w3.org/2000/svg" p-id="3078" xmlns:xlink="http://www.w3.org/1999/xlink" width="200" height="200"><defs><style type="text/css"></style></defs><path d="M422.588632 725.530947a292.217263 292.217263 0 0 1-159.232-44.705684 316.793263 316.793263 0 0 1-145.246316-192.727579 320.673684 320.673684 0 0 1 33.522526-237.433263 314.260211 314.260211 0 0 1 575.434105 81.00379 315.472842 315.472842 0 0 1-226.357894 382.652631 252.335158 252.335158 0 0 1-78.120421 11.210105z m0-572.631579a259.584 259.584 0 1 0 64.377263 511.191579 262.602105 262.602105 0 0 0 187.149473-315.634526 258.533053 258.533053 0 0 0-251.526736-195.530105z" fill="" p-id="3079"></path><path d="M889.047579 859.621053a25.357474 25.357474 0 0 1-19.56379-8.380632l-156.294736-156.294737a27.648 27.648 0 0 1 39.100631-39.100631l156.294737 156.294736a26.947368 26.947368 0 0 1 0 39.100632 30.181053 30.181053 0 0 1-19.536842 8.380632z" fill="" p-id="3080"></path></svg>