<?xml version="1.0" standalone="no"?><!DOCTYPE svg PUBLIC "-//W3C//DTD SVG 1.1//EN" "http://www.w3.org/Graphics/SVG/1.1/DTD/svg11.dtd"><svg t="1564545106785" class="icon" viewBox="0 0 1024 1024" version="1.1" xmlns="http://www.w3.org/2000/svg" p-id="4731" xmlns:xlink="http://www.w3.org/1999/xlink" width="245" height="245"><defs><style type="text/css"></style></defs><path d="M63.32242642 732.93453212c7.36448454 0 22.0934536 0 29.45793684-7.36448455L505.19148936 313.15892148 924.96710001 725.57004758c14.72896907 14.72896907 36.82242138 14.72896907 51.55139043 0 14.72896907-14.72896907 14.72896907-36.82242138 0-51.55139044l-441.86906295-434.50457969c-14.72896907-14.72896907-36.82242138-14.72896907-51.55139172 0l-441.86906294 434.50457969c-14.72896907 14.72896907-14.72896907 36.82242138 0 51.55139044 7.36448454 7.36448454 14.72896907 7.36448454 22.09345359 7.36448454z" fill="" p-id="4732"></path><path d="M291.62144179 799.21489163c7.36448454 0 22.0934536 0 29.45793812-7.36448454L505.19148936 600.3738131 696.66808335 784.48592255c14.72896907 14.72896907 36.82242138 14.72896907 51.55139043 0 14.72896907-14.72896907 14.72896907-36.82242138 0-51.55139043l-213.57004629-213.57004758c-14.72896907-7.36448454-36.82242138-7.36448454-51.55139172 7.36448453L269.52798947 732.93453212c-14.72896907 14.72896907-14.72896907 36.82242138 0 51.55139043 0 7.36448454 14.72896907 14.72896907 22.09345232 14.72896908z" fill="" p-id="4733"></path></svg>