<?xml version="1.0" standalone="no"?><!DOCTYPE svg PUBLIC "-//W3C//DTD SVG 1.1//EN" "http://www.w3.org/Graphics/SVG/1.1/DTD/svg11.dtd"><svg t="1553161569894" class="icon" style="" viewBox="0 0 1024 1024" version="1.1" xmlns="http://www.w3.org/2000/svg" p-id="5162" xmlns:xlink="http://www.w3.org/1999/xlink" width="200" height="200"><defs><style type="text/css"></style></defs><path d="M1023.986944 518.406446c0 276.476475-229.245077 505.593554-518.39339 505.593554-276.476475 0-505.593554-229.245077-505.593554-505.593554C0 229.258133 229.245077 0.013056 505.593554 0.013056a514.745437 514.745437 0 0 1 518.39339 518.39339zM511.993472 260.233738a38.911504 38.911504 0 0 0-39.487496 40.959478l10.623864 287.996328a42.943452 42.943452 0 0 0 42.36746 40.959478h-27.135654A42.431459 42.431459 0 0 0 540.793105 588.805549l10.623864-287.996328A39.167501 39.167501 0 0 0 511.993472 260.297737z m0 503.54558a40.959478 40.959478 0 1 0-40.959478-40.959478 40.959478 40.959478 0 0 0 40.959478 40.959478z m0-14.975809" fill="" p-id="5163"></path></svg>