<?xml version="1.0" standalone="no"?><!DOCTYPE svg PUBLIC "-//W3C//DTD SVG 1.1//EN" "http://www.w3.org/Graphics/SVG/1.1/DTD/svg11.dtd"><svg t="1559303177759" class="icon" style="" viewBox="0 0 1024 1024" version="1.1" xmlns="http://www.w3.org/2000/svg" p-id="3547" xmlns:xlink="http://www.w3.org/1999/xlink" width="200" height="200"><defs><style type="text/css"></style></defs><path d="M240.5 152.5H112.5c-13.3 0-24-10.7-24-24s10.7-24 24-24h128c13.3 0 24 10.7 24 24s-10.7 24-24 24z" fill="#7A7EF5" p-id="3548"></path><path d="M928.5 952.5H96.5c-48.5 0-88-39.5-88-88V288.5c0-48.5 39.5-88 88-88h229.1L430.4 80.7C435 75.5 441.6 72.5 448.5 72.5h224c6.9 0 13.5 3 18.1 8.2L795.4 200.5H928.5c48.5 0 88 39.5 88 88v576c0 48.5-39.5 88-88 88zM96.5 248.5c-22.1 0-40 17.9-40 40v576c0 22.1 17.9 40 40 40h832c22.1 0 40-17.9 40-40V288.5c0-22.1-17.9-40-40-40H784.5c-6.9 0-13.5-3-18.1-8.2L661.6 120.5H459.4L354.6 240.3C350 245.5 343.5 248.5 336.5 248.5H96.5z" fill="#1037AC" p-id="3549"></path><path d="M560.5 824.5c-66.2 0-128.5-25.8-175.4-72.6C338.3 705 312.5 642.7 312.5 576.5s25.8-128.5 72.6-175.4S494.3 328.5 560.5 328.5s128.5 25.8 175.4 72.6C782.7 448 808.5 510.3 808.5 576.5s-25.8 128.5-72.6 175.4C689 798.7 626.7 824.5 560.5 824.5z m0-448c-110.3 0-200 89.7-200 200s89.7 200 200 200 200-89.7 200-200-89.7-200-200-200z" fill="#7A7EF5" p-id="3550"></path><path d="M208.5 424.5c-22.1 0-40-17.9-40-40s17.9-40 40-40 40 17.9 40 40-17.9 40-40 40z m0-48c-4.4 0-8 3.6-8 8s3.6 8 8 8 8-3.6 8-8-3.6-8-8-8z" fill="#1037AC" p-id="3551"></path><path d="M208.5 384.5m-16 0a16 16 0 1 0 32 0 16 16 0 1 0-32 0Z" fill="#1037AC" p-id="3552"></path></svg>