<?xml version="1.0" standalone="no"?><!DOCTYPE svg PUBLIC "-//W3C//DTD SVG 1.1//EN" "http://www.w3.org/Graphics/SVG/1.1/DTD/svg11.dtd"><svg t="1550028236822" class="icon" style="" viewBox="0 0 1024 1024" version="1.1" xmlns="http://www.w3.org/2000/svg" p-id="4018" xmlns:xlink="http://www.w3.org/1999/xlink" width="200" height="200"><defs><style type="text/css"></style></defs><path d="M796.672 646.144l-3.584 9.216c-34.816 94.208-113.664 164.864-211.456 187.904l-7.168 1.536-4.096-5.632c-13.824-18.432-35.328-28.672-57.344-28.672-8.704 0-17.408 1.536-25.6 4.608-29.696 11.776-48.128 41.984-45.056 73.728 3.584 31.744 28.16 57.856 59.904 62.464 31.744 5.12 62.976-11.776 75.776-41.472l2.048-5.12 5.632-1.024c130.56-27.136 235.008-123.392 271.872-251.904l2.048-7.68-62.976 2.048z" fill="" p-id="4019"></path><path d="M876.032 380.416l-7.68-1.024-1.536-7.68C838.144 198.144 689.664 71.68 513.024 71.68c-176.64 0-325.12 125.952-353.792 300.032l-1.536 7.168-7.68 1.024c-45.056 7.168-77.824 45.056-77.824 90.624v81.92c0 50.688 40.96 91.648 91.648 91.648h61.44c16.384 0 30.208-13.312 30.208-30.208v-204.8c0-14.848-10.752-27.136-25.088-29.696l-11.264-2.048 2.56-11.264c14.336-65.536 50.688-125.44 102.912-167.936 53.248-43.52 119.808-67.072 188.416-67.072 68.608 0 135.68 24.064 188.416 67.072 52.224 42.496 89.088 102.4 102.912 167.936l2.56 11.264-11.264 2.048c-14.848 2.56-25.088 14.848-25.088 29.696V614.4c0 11.776 6.656 22.528 17.408 27.136l9.216 4.096 62.976-1.024 7.68-0.512c48.128-3.072 86.016-43.008 86.016-91.648V471.04c-0.512-45.568-32.768-83.968-77.824-90.624zM196.608 587.776H163.84c-17.92 0-32.768-14.848-32.768-32.768V468.992c0-17.92 14.848-32.768 32.768-32.768h32.768v151.552z m701.952-27.648c0 20.48-16.384 36.864-36.864 36.864h-36.864V427.008h36.864c20.48 0 36.864 16.384 36.864 36.864v96.256z" fill="" p-id="4020"></path></svg>