<?xml version="1.0" standalone="no"?><!DOCTYPE svg PUBLIC "-//W3C//DTD SVG 1.1//EN" "http://www.w3.org/Graphics/SVG/1.1/DTD/svg11.dtd"><svg t="1560502246108" class="icon" style="" viewBox="0 0 1024 1024" version="1.1" xmlns="http://www.w3.org/2000/svg" p-id="4677" xmlns:xlink="http://www.w3.org/1999/xlink" width="200" height="200"><defs><style type="text/css"></style></defs><path d="M687.104 940.032c-30.208 0-52.224-4.096-60.928-6.144-38.912-2.048-91.136-27.648-128.512-49.664-53.248-30.72-112.64-73.728-166.4-120.832-61.44-53.248-115.2-111.616-156.672-168.448-49.152-67.584-80.896-133.632-93.696-196.096-19.968-97.792-9.216-174.08 32.256-226.816 48.64-62.464 120.832-66.048 123.904-66.56h2.048c3.072 0 31.232 1.024 65.024 13.824 46.592 17.92 81.408 50.176 100.352 93.696 14.848 33.792 16.384 65.024 4.608 96.256-9.728 25.6-26.112 46.08-42.496 66.048-14.336 17.408-27.648 34.304-34.816 52.224 0 1.536 0 9.728 11.776 29.696 9.728 16.896 25.6 37.376 45.056 58.88 35.328 39.424 83.456 81.92 127.488 113.664 54.272 38.912 84.48 48.64 94.208 48.128 53.248-2.048 116.736-51.2 135.168-66.048 13.824-11.264 31.232-16.896 49.152-15.872 71.68 4.608 120.32 28.16 144.384 69.12 14.848 25.088 18.944 56.832 12.8 90.624-4.608 24.064-12.8 40.96-13.824 43.008l-0.512 1.536-1.024 1.536c-59.904 94.208-142.336 125.44-200.192 134.656-17.92 2.56-34.816 3.584-49.152 3.584z m-49.152-66.048c1.536 0.512 40.96 9.728 91.136 1.536 65.024-10.752 117.248-46.08 154.624-104.96 6.144-13.824 16.896-49.664 2.048-74.752-16.384-27.648-60.416-36.352-94.72-38.912-2.56 0-4.608 0.512-6.656 2.048-34.816 28.672-103.936 77.312-171.52 80.384h-2.56c-44.544 0-108.544-42.496-154.624-78.336-59.904-46.592-115.712-102.4-148.992-148.992-31.744-44.032-41.984-78.848-31.744-105.984 10.752-27.136 28.672-49.664 44.544-69.632 31.232-38.4 46.592-59.904 29.696-98.816-12.8-28.672-34.816-49.152-66.56-60.928-20.992-8.192-38.4-9.728-43.008-9.728-7.68 0.512-49.664 6.144-77.824 43.52-29.184 38.4-35.84 97.28-19.968 176.128 20.48 100.864 104.448 221.184 229.888 331.264 51.2 44.544 106.496 84.992 156.672 113.664 52.224 30.208 87.04 40.96 102.4 41.472h3.584l3.584 1.024z" fill="#2E77ED" p-id="4678"></path><path d="M752.64 553.984h-3.072c-16.896-1.536-29.184-16.384-27.648-33.28 5.632-58.88-7.168-105.984-37.376-140.288-52.736-59.392-142.336-62.464-143.36-62.464-16.896-0.512-30.208-14.336-29.696-31.232 0.512-16.896 14.336-30.208 31.232-29.696 4.608 0 117.248 4.096 187.392 82.944 41.984 47.104 59.392 110.08 52.224 186.88-1.024 14.848-14.336 27.136-29.696 27.136z" fill="#FFBB12" p-id="4679"></path><path d="M913.92 511.488h-3.584c-16.896-2.048-28.672-17.408-26.624-34.304 11.776-95.744-7.68-172.544-57.344-227.84-95.744-106.496-273.408-104.448-274.944-104.448-16.896 0.512-30.72-13.312-31.232-30.208-0.512-16.896 13.312-30.72 30.208-31.232 2.048 0 52.224-1.024 116.736 13.824 37.888 8.704 73.216 20.992 104.448 36.352 39.936 19.456 73.728 44.544 100.864 74.752 62.464 69.12 87.04 162.304 72.704 276.48-2.56 15.36-15.872 26.624-31.232 26.624z" fill="#FFBB12" p-id="4680"></path></svg>